<?xml version="1.0" encoding="UTF-8" standalone="no"?><!DOCTYPE svg PUBLIC "-//W3C//DTD SVG 1.1//EN" "http://www.w3.org/Graphics/SVG/1.1/DTD/svg11.dtd"><svg width="100%" height="100%" viewBox="0 0 1882 1534" version="1.1" xmlns="http://www.w3.org/2000/svg" xmlns:xlink="http://www.w3.org/1999/xlink" xml:space="preserve" xmlns:serif="http://www.serif.com/" style="fill-rule:evenodd;clip-rule:evenodd;stroke-linecap:round;stroke-miterlimit:10;"><path d="M355.283,1396.31c349.105,182.375 915.117,182.379 1264.22,0.004c349.108,-182.384 349.108,-478.067 0,-660.442c-349.104,-182.375 -915.117,-182.375 -1264.22,-0.004c-349.104,182.375 -349.104,478.062 0.004,660.442" style="fill:#767676;fill-rule:nonzero;"/><path d="M1294.55,1398.09c52.488,25.016 137.579,25.016 190.063,0c52.487,-25.013 52.487,-65.571 0,-90.592c-52.484,-25.012 -137.575,-25.012 -190.063,0c-52.487,25.021 -52.487,65.579 0,90.592" style="fill:#9f9f9f;fill-rule:nonzero;"/><path d="M195.418,798.708c0,0 0.546,-66.929 -34,-107.675c-34.546,-40.754 -76.387,-33.162 -91.287,-25.566c-14.905,7.6 -24.871,29.295 0.745,44.825c25.617,15.533 80.088,46.587 89.138,74.32l35.404,14.096Z" style="fill:#00dfbf;fill-rule:nonzero;"/><path d="M85.775,672.945c22.308,6.559 86.221,42.292 93.504,109.538" style="fill:none;fill-rule:nonzero;stroke:#fff;stroke-width:4.17px;"/><path d="M166.486,768.734c-8.663,-19.742 -18.455,-28.596 -46.621,-23.883c-28.175,4.712 -24.009,3.991 -58.613,-4.825c-34.6,-8.817 -58.546,5.391 -61.066,18.696c-2.742,14.458 25.479,20.82 46.537,30.212c21.063,9.392 35.508,21.363 30.488,40.325c-4.3,16.242 -1.588,29.988 23.458,35.896c22.25,5.25 45.987,-7.617 55.167,13.671c5.233,12.133 26.012,25.383 45.162,14.071c33.067,-33.284 23.767,-73.842 2.525,-100.567c-9.354,-11.771 -31.837,-11.738 -37.037,-23.596" style="fill:#00dfbf;fill-rule:nonzero;"/><g opacity="0.2"><path d="M166.486,768.734c-8.663,-19.742 -18.455,-28.596 -46.621,-23.883c-28.175,4.712 -24.009,3.991 -58.613,-4.825c-34.6,-8.817 -58.546,5.391 -61.066,18.696c-2.742,14.458 25.479,20.82 46.537,30.212c21.063,9.392 35.508,21.363 30.488,40.325c-4.3,16.242 -1.588,29.988 23.458,35.896c22.25,5.25 45.987,-7.617 55.167,13.671c5.233,12.133 26.012,25.383 45.162,14.071c33.067,-33.284 23.767,-73.842 2.525,-100.567c-9.354,-11.771 -31.837,-11.738 -37.037,-23.596" style="fill-rule:nonzero;"/></g><path d="M25.633,751.4c36.162,2.571 141.912,45.804 168.858,104.862" style="fill:none;fill-rule:nonzero;stroke:#fff;stroke-width:4.17px;"/><path d="M102.419,831.675c0,0 19.996,-18.545 52.258,-22.266" style="fill:none;fill-rule:nonzero;stroke:#fff;stroke-width:4.17px;"/><path d="M526.286,1432.3c-12.071,6.975 -38.034,8.079 -44.067,-12.921c-6.033,-20.996 -4.642,-31.475 -20.717,-35.112c-16.075,-3.638 -46.466,11.991 -58.358,-11.467c-11.896,-23.454 12.358,-35.471 -2.467,-48.3c-14.829,-12.829 -42.321,-26.892 -28.679,-43.587c13.638,-16.696 31.354,-12.03 46.446,-6.3c15.796,6 39.817,1.229 60.55,2.662c20.729,1.433 25.383,17.638 25.858,30.288c0.475,12.645 7.796,27.095 25.784,23.87l-4.35,100.867Z" style="fill:#00dfbf;fill-rule:nonzero;"/><path d="M389.016,1284.38c48.72,5.813 118.429,62.959 139.279,101.338" style="fill:none;fill-rule:nonzero;stroke:#fff;stroke-width:4.17px;"/><path d="M483.333,1293.18c0,0 0.296,29.709 -4.417,37.421" style="fill:none;fill-rule:nonzero;stroke:#fff;stroke-width:4.17px;"/><path d="M421.785,1354.67c0,0 34.954,-5.762 67.942,-14.696" style="fill:none;fill-rule:nonzero;stroke:#fff;stroke-width:4.17px;"/><path d="M1504.48,643.406c23.421,0 33.516,-6.625 39.216,-21.833c5.696,-15.208 3.634,-30.721 22.705,-36.729c19.079,-6.017 30.475,-2.246 39.966,-21.221c9.496,-18.979 -14.933,-42.021 -3.191,-55.188c11.741,-13.166 38.958,-26.229 33.575,-42.504c-3.638,-11.021 -15.192,-15.058 -25.909,-14.429c-6.425,0.375 -13.454,4.188 -18.7,8.058c-6.125,4.517 -12.008,5.517 -20.037,6.305c-6.913,0.67 -13.867,-0.2 -20.796,-0.684c-4.838,-0.337 -9.896,-0.45 -14.3,1.575c-7.883,3.621 -11.467,13.329 -10.563,21.954c0.75,7.03 1.525,12.838 -0.041,19.725c-2.229,9.8 -14.913,12.592 -21.925,19.796c-16.204,16.659 -4.513,46.117 -2.892,66.771c1.083,13.888 1.804,34.517 2.892,48.404" style="fill:#00dfbf;fill-rule:nonzero;"/><path d="M1619.66,465.93c-19.429,5.192 -95.546,69.088 -111.016,135.521" style="fill:none;fill-rule:nonzero;stroke:#fff;stroke-width:4.17px;"/><path d="M1546.78,479.761c0,0 11.442,18.925 11.038,35.008" style="fill:none;fill-rule:nonzero;stroke:#fff;stroke-width:4.17px;"/><path d="M1589.08,552.409c0,0 -35.234,-11.633 -59.905,1.038" style="fill:none;fill-rule:nonzero;stroke:#fff;stroke-width:4.17px;"/><path d="M649.036,10.435l-14.617,-8.441c-4.608,-2.659 -12.079,-2.659 -16.683,0l-421.525,243.366c-4.605,2.663 -8.342,9.13 -8.342,14.45l0,631.305c0,5.325 3.737,11.783 8.342,14.445l14.625,8.438c4.604,2.662 12.075,2.662 16.679,0l421.525,-243.363c4.604,-2.658 8.337,-9.129 8.337,-14.45l0,-631.304c0,-5.321 -3.737,-11.787 -8.341,-14.446" style="fill:#00dfbf;fill-rule:nonzero;"/><path d="M649.036,10.435l-14.617,-8.441c-4.608,-2.659 -12.079,-2.659 -16.683,0l-421.525,243.366c-4.605,2.663 -8.342,9.13 -8.342,14.45l0,631.305c0,5.325 3.737,11.783 8.342,14.445l14.625,8.438c4.604,2.662 12.075,2.662 16.679,0l421.525,-243.363c4.604,-2.658 8.337,-9.129 8.337,-14.45l0,-631.304c0,-5.321 -3.737,-11.787 -8.341,-14.446" style="fill:#f5f5f5;fill-rule:nonzero;"/><path d="M412.126,379.651c-2.917,-1.687 -153.059,-88.371 -221.813,-128.062c-1.508,2.612 -2.442,5.562 -2.442,8.221l0,631.304c0,5.325 3.738,11.787 8.342,14.446l14.621,8.441c4.604,2.659 12.075,2.659 16.683,0l185.342,-107.008c0.871,-160.958 1.904,-425.821 -0.733,-427.342" style="fill:#e1e1e1;fill-rule:nonzero;"/><path d="M649.036,20.067l-421.525,243.366c-4.605,2.659 -8.338,9.129 -8.338,14.446l0.004,631.304c0,5.321 3.734,7.479 8.338,4.817l421.525,-243.367c4.604,-2.658 8.337,-9.125 8.337,-14.446l0,-631.304c0,-5.321 -3.737,-7.475 -8.341,-4.816" style="fill:#f5f5f5;fill-rule:nonzero;"/><path d="M243.166,272.469l390.217,-225.296c4.608,-2.658 8.341,-0.504 8.341,4.817l0,540.95c0,5.317 -3.733,11.787 -8.341,14.446l-390.221,225.291c-4.604,2.659 -8.342,0.505 -8.342,-4.82l0.004,-540.938c0,-5.321 3.738,-11.787 8.342,-14.45" style="fill:#fff;fill-rule:nonzero;"/><path d="M234.826,286.918l0,113.938c12.8,4.666 29.142,2.471 46.95,-7.813c41.059,-23.704 74.342,-81.354 74.342,-128.766c0,-21.892 -7.108,-37.755 -18.787,-46.175l-94.163,54.366c-4.608,2.663 -8.342,9.129 -8.342,14.45" style="fill:#e7e7e7;fill-rule:nonzero;"/><path d="M570.988,260.616l-101.413,242.563l-66.65,-53.875c-5.875,-4.75 -14.65,-2.679 -17.783,4.196l-150.321,329.779l0,44.579c0,5.325 3.733,7.479 8.342,4.817l58.866,-33.984l331.359,-191.304c4.604,-2.662 8.337,-9.129 8.337,-14.45l0,-261.442l-50.575,-73.004c-5.196,-7.504 -16.637,-6.3 -20.162,2.125" style="fill:#e7e7e7;fill-rule:nonzero;"/><path d="M756.854,72.821l-14.617,-8.437c-4.608,-2.663 -12.079,-2.663 -16.683,0l-421.525,243.362c-4.604,2.663 -8.342,9.129 -8.342,14.45l0,631.304c0,5.325 3.738,11.784 8.342,14.446l14.625,8.438c4.604,2.662 12.071,2.662 16.679,0l421.521,-243.363c4.608,-2.662 8.342,-9.129 8.342,-14.45l0,-631.304c0,-5.317 -3.738,-11.787 -8.342,-14.446" style="fill:#f5f5f5;fill-rule:nonzero;"/><path d="M519.944,442.037c-2.921,-1.687 -153.063,-88.371 -221.813,-128.062c-1.508,2.616 -2.441,5.562 -2.441,8.22l0,631.305c0,5.325 3.733,11.787 8.341,14.445l14.621,8.442c4.604,2.658 12.075,2.658 16.684,0l185.337,-107.008c0.875,-160.959 1.904,-425.821 -0.729,-427.342" style="fill:#e1e1e1;fill-rule:nonzero;"/><path d="M756.854,82.452l-421.525,243.367c-4.604,2.658 -8.338,9.129 -8.338,14.446l0,631.304c0,5.321 3.734,7.479 8.342,4.817l421.521,-243.367c4.608,-2.658 8.342,-9.125 8.342,-14.446l0,-631.304c0,-5.321 -3.738,-7.475 -8.342,-4.817" style="fill:#f0f0f0;fill-rule:nonzero;"/><path d="M350.984,334.855l390.217,-225.291c4.608,-2.663 8.342,-0.504 8.342,4.812l0,540.95c0,5.317 -3.734,11.788 -8.342,14.45l-390.221,225.288c-4.608,2.658 -8.342,0.504 -8.342,-4.821l0.005,-540.938c0,-5.32 3.733,-11.787 8.341,-14.45" style="fill:#fff;fill-rule:nonzero;"/><path d="M342.643,349.305l0,113.937c12.8,4.667 29.142,2.471 46.95,-7.808c41.058,-23.709 74.342,-81.359 74.342,-128.771c0,-21.892 -7.109,-37.754 -18.788,-46.171l-94.162,54.363c-4.609,2.662 -8.342,9.133 -8.342,14.45" style="fill:#e1e1e1;fill-rule:nonzero;"/><path d="M678.806,323.005l-101.412,242.558l-66.65,-53.871c-5.875,-4.75 -14.65,-2.679 -17.783,4.196l-150.321,329.783l-0.004,44.575c0,5.321 3.737,7.479 8.341,4.817l58.867,-33.983l331.358,-191.305c4.609,-2.662 8.342,-9.129 8.342,-14.45l0,-261.441l-50.575,-73.004c-5.2,-7.505 -16.642,-6.3 -20.163,2.125" style="fill:#e7e7e7;fill-rule:nonzero;"/><path d="M854.486,748.743l-26.679,-2.592l0,-587.316l26.679,2.591l0,587.317Z" style="fill:#1a2e35;fill-rule:nonzero;"/><g opacity="0.5"><path d="M429.246,404.207l390.217,-225.295c4.608,-2.663 8.341,-0.505 8.341,4.812l0,540.954c0,5.317 -3.733,11.784 -8.341,14.446l-390.221,225.292c-4.609,2.658 -8.342,0.504 -8.342,-4.821l0.004,-540.942c0,-5.321 3.738,-11.787 8.342,-14.446" style="fill:#fff;fill-rule:nonzero;"/></g><path d="M757.066,368.366l-101.413,242.558l-66.65,-53.871c-5.871,-4.75 -14.65,-2.679 -17.783,4.196l-150.321,329.783l0,44.575c0,5.321 3.733,7.48 8.342,4.817l58.866,-33.983l331.359,-191.304c4.604,-2.663 8.341,-9.13 8.341,-14.45l0,-261.442l-50.575,-73.004c-5.2,-7.509 -16.641,-6.3 -20.166,2.125" style="fill:#00dfbf;fill-rule:nonzero;"/><g opacity="0.5"><path d="M757.066,368.366l-101.413,242.558l-66.65,-53.871c-5.871,-4.75 -14.65,-2.679 -17.783,4.196l-150.321,329.783l0,44.575c0,5.321 3.733,7.48 8.342,4.817l58.866,-33.983l331.359,-191.304c4.604,-2.663 8.341,-9.13 8.341,-14.45l0,-261.442l-50.575,-73.004c-5.2,-7.509 -16.641,-6.3 -20.166,2.125" style="fill:#fff;fill-rule:nonzero;"/></g><path d="M804.242,380.257l-30.788,-17.487l0,35.262l30.788,-17.775Z" style="fill:#00dfbf;fill-rule:nonzero;"/><g opacity="0.5"><path d="M804.242,380.257l-30.788,-17.487l0,35.262l30.788,-17.775Z" style="fill:#fff;fill-rule:nonzero;"/></g><path d="M618.571,573.653l-31.246,-17.733l-0.521,35.075l31.767,-17.342Z" style="fill:#00dfbf;fill-rule:nonzero;"/><g opacity="0.5"><path d="M618.571,573.653l-31.246,-17.733l-0.521,35.075l31.767,-17.342Z" style="fill:#fff;fill-rule:nonzero;"/></g><path d="M854.482,721.045c0,5.317 -3.734,11.787 -8.359,14.45l-215.529,124.508l-170.062,98.171c-4.588,2.658 -8.325,0.504 -8.325,-4.812l0,-540.938c0,-2.658 0.925,-5.587 2.429,-8.204c1.5,-2.621 3.579,-4.933 5.896,-6.242l385.591,-222.679c4.625,-2.7 8.359,-0.542 8.359,4.813l0,540.933Zm20.183,-571.996c-0.037,-0.35 -0.112,-0.733 -0.192,-1.042c-0.845,-4.737 -4.162,-9.783 -8.05,-12.058l-14.641,-8.437c-4.588,-2.659 -12.059,-2.659 -16.684,0l-421.495,243.341c-2.313,1.35 -4.392,3.621 -5.934,6.242c-1.504,2.621 -2.425,5.55 -2.425,8.208l0,631.317c0,5.321 3.738,11.792 8.359,14.454l14.6,8.429c4.008,2.321 10.212,2.629 14.758,0.888c0.192,-0.075 0.387,-0.154 0.579,-0.229c0.421,-0.155 0.883,-0.38 1.346,-0.659l185.358,-106.991l236.179,-136.35c4.584,-2.655 8.321,-9.125 8.321,-14.446l0,-631.321c0,-0.458 -0.037,-0.925 -0.079,-1.346" style="fill:#375a64;fill-rule:nonzero;"/><path d="M630.593,860.004c-0.117,25.546 -0.234,50.05 -0.346,72.508l-185.359,106.992c-0.462,0.275 -0.929,0.504 -1.35,0.658c-0.191,0.075 -0.383,0.154 -0.579,0.229c-4.546,1.742 -10.746,1.434 -14.754,-0.887l-14.604,-8.429c-4.621,-2.663 -8.358,-9.134 -8.358,-14.455l0,-631.316c0,-2.659 0.925,-5.592 2.425,-8.209c9.17,5.28 19.766,11.405 31.287,18.071c5.083,2.929 10.325,5.934 15.679,9.054c-1.5,2.617 -2.429,5.546 -2.429,8.205l0,540.937c0,5.317 3.738,7.471 8.325,4.813l170.063,-98.171Z" style="fill:#1a2e35;fill-rule:nonzero;"/><path d="M452.199,412.429l0,113.938c12.8,4.666 29.142,2.47 46.95,-7.809c41.058,-23.708 74.342,-81.358 74.342,-128.766c0,-21.896 -7.109,-37.755 -18.788,-46.175l-94.162,54.366c-4.609,2.659 -8.342,9.129 -8.342,14.446" style="fill:#00dfbf;fill-rule:nonzero;"/><g opacity="0.7"><path d="M452.199,412.429l0,113.938c12.8,4.666 29.142,2.47 46.95,-7.809c41.058,-23.708 74.342,-81.358 74.342,-128.766c0,-21.896 -7.109,-37.755 -18.788,-46.175l-94.162,54.366c-4.609,2.659 -8.342,9.129 -8.342,14.446" style="fill:#fff;fill-rule:nonzero;"/></g><path d="M788.361,386.129l-101.413,242.563l-66.65,-53.875c-5.871,-4.75 -14.65,-2.68 -17.783,4.195l-150.321,329.78l0,44.579c0,5.325 3.733,7.479 8.342,4.816l58.866,-33.983l326.738,-188.712c4.608,-2.663 8.341,-9.13 8.341,-14.45l0,-261.442l-45.958,-75.596c-5.196,-7.508 -16.637,-6.3 -20.162,2.125Z" style="fill:#00dfbf;fill-rule:nonzero;stroke:#00dfbf;stroke-width:4.17px;stroke-linecap:butt;"/><path d="M854.482,721.045c0,5.317 -3.734,11.787 -8.359,14.45l-215.529,124.508l-170.062,98.171c-4.588,2.658 -8.325,0.504 -8.325,-4.812l0,-540.938c0,-2.658 0.925,-5.587 2.429,-8.204c1.5,-2.621 3.579,-4.933 5.896,-6.242l385.591,-222.679c4.625,-2.7 8.359,-0.542 8.359,4.813l0,540.933Zm20.183,-571.996c-0.037,-0.35 -0.112,-0.733 -0.192,-1.042c-1,-3.504 -4.237,-4.658 -8.05,-2.425l-421.537,243.38c-2.308,1.308 -4.392,3.62 -5.933,6.204c-1.5,2.621 -2.425,5.587 -2.425,8.246l0.037,631.283c0,4.542 2.733,6.779 6.396,5.696c0.192,-0.075 0.387,-0.154 0.579,-0.229c0.421,-0.155 0.883,-0.38 1.346,-0.659l185.358,-106.991l236.179,-136.35c4.584,-2.655 8.321,-9.125 8.321,-14.446l0,-631.321c0,-0.458 -0.037,-0.925 -0.079,-1.346" style="fill:#2b454e;fill-rule:nonzero;"/><path d="M551.027,1163.63l0,271.888c0,6.858 4.309,10.054 9.971,7.912c-6.654,2.8 -15.996,2.5 -22,-0.966l-9.792,-5.654c-6.645,-3.834 -12.029,-13.167 -12.029,-20.834l0,-271.887c0,-3.838 1.346,-8.088 3.525,-11.859l33.85,19.542c-2.179,3.775 -3.525,8.021 -3.525,11.858" style="fill:#1a2e35;fill-rule:nonzero;"/><path d="M1012.9,843.988c6.65,-3.837 17.416,-3.837 24.054,0l9.8,5.654c6.004,3.467 10.937,11.417 11.842,18.58c-0.971,-5.984 -5.9,-8.13 -11.842,-4.696l-483.704,279.266c-3.321,1.917 -6.325,5.209 -8.504,8.975l-33.85,-19.541c2.175,-3.771 5.183,-7.063 8.504,-8.979l483.7,-279.259Z" style="fill:#375a64;fill-rule:nonzero;"/><path d="M551.035,1163.63l-0.008,271.875c0,7.667 5.387,10.779 12.025,6.946l483.708,-279.262c6.629,-3.834 12.025,-13.171 12.025,-20.834l0.008,-271.875c-0.016,-7.691 -5.387,-10.775 -12.025,-6.941l-483.704,279.262c-6.641,3.833 -12.041,13.142 -12.029,20.829" style="fill:#2b454e;fill-rule:nonzero;"/><path d="M983.868,912.877c3.996,-2.309 7.217,-0.446 7.217,4.17l-0.009,256.925c0,4.617 -3.22,10.196 -7.216,12.505l-357.909,206.641c-3.991,2.304 -7.216,0.442 -7.22,-4.171l-0.005,-10.233l0.017,-246.696c-0.004,-4.616 3.221,-10.2 7.213,-12.504l357.912,-206.637Z" style="fill:#f5f5f5;fill-rule:nonzero;"/><path d="M569.376,1288.98c0,-2.695 1.896,-5.979 4.234,-7.329c2.337,-1.346 4.229,-0.254 4.229,2.446c0,2.7 -1.892,5.979 -4.229,7.329c-2.338,1.346 -4.234,0.254 -4.234,-2.446" style="fill:#1a2e35;fill-rule:nonzero;"/><path d="M1008.27,1035.59c0,-10.659 7.479,-23.613 16.709,-28.938c9.229,-5.329 16.708,-1.008 16.708,9.646c0,10.654 -7.479,23.608 -16.708,28.933c-9.23,5.33 -16.709,1.013 -16.709,-9.641" style="fill:#1a2e35;fill-rule:nonzero;"/><path d="M586.627,1232.87c0,-5.4 3.791,-11.963 8.462,-14.663c4.675,-2.696 8.463,-0.508 8.463,4.888c0,5.395 -3.788,11.958 -8.463,14.658c-4.671,2.696 -8.462,0.512 -8.462,-4.883" style="fill:#1a2e35;fill-rule:nonzero;"/><path d="M595.388,1251.7c3.116,-1.8 5.641,-0.146 5.641,3.692l0,64.279c0,3.838 -2.525,8.404 -5.641,10.204c-3.117,1.796 -5.642,0.15 -5.642,-3.687l0,-64.284c0,-3.837 2.525,-8.404 5.642,-10.204" style="fill:#1a2e35;fill-rule:nonzero;"/><path d="M618.742,1132.02l-0.004,55.658c7.741,5.4 18.895,5.2 31.337,-1.979c23.367,-13.491 42.308,-46.304 42.308,-73.291c0,-11.888 -3.679,-20.646 -9.791,-25.592l-56.638,32.7c-3.991,2.308 -7.216,7.892 -7.212,12.504" style="fill:#00dfbf;fill-rule:nonzero;"/><g opacity="0.7"><path d="M618.742,1132.02l-0.004,55.658c7.741,5.4 18.895,5.2 31.337,-1.979c23.367,-13.491 42.308,-46.304 42.308,-73.291c0,-11.888 -3.679,-20.646 -9.791,-25.592l-56.638,32.7c-3.991,2.308 -7.216,7.892 -7.212,12.504" style="fill:#fff;fill-rule:nonzero;"/></g><path d="M991.078,1082.2l-61.066,-74.129c-3.654,-4.437 -8.554,-3.792 -10.938,1.442l-80.316,176.187l-75.609,-43.654c-4.979,-2.875 -11.675,-1.375 -14.954,3.354l-129.467,186.742l0.005,55.875l0,0.933c0.004,4.617 3.225,6.475 7.22,4.171l357.909,-206.642c3.996,-2.304 7.216,-7.883 7.216,-12.504l0,-89.925l0,-1.85Z" style="fill:#00dfbf;fill-rule:nonzero;"/><path d="M642.381,1175.92l0.004,-39.087l33.841,-19.538" style="fill:none;fill-rule:nonzero;stroke:#fff;stroke-width:6.25px;stroke-linejoin:round;"/><path d="M642.385,1320.43l-0.004,39.091l33.854,-19.545" style="fill:none;fill-rule:nonzero;stroke:#fff;stroke-width:6.25px;stroke-linejoin:round;"/><path d="M934.381,969.192l33.854,-19.542l0,39.079" style="fill:none;fill-rule:nonzero;stroke:#fff;stroke-width:6.25px;stroke-linejoin:round;"/><path d="M968.227,1132.81l0.008,39.087l-33.854,19.542" style="fill:none;fill-rule:nonzero;stroke:#fff;stroke-width:6.25px;stroke-linejoin:round;"/><path d="M1144.32,495.522c0,53.638 -37.637,118.867 -84.087,145.667c-19.309,11.142 -37.075,13.888 -51.263,9.45c-10.991,-10.054 -17.508,-26.879 -17.508,-49.196c0,-53.6 37.646,-118.833 84.092,-145.629c19.308,-11.146 37.108,-13.892 51.3,-9.412c10.958,10.05 17.466,26.837 17.466,49.12" style="fill:#00dfbf;fill-rule:nonzero;"/><path d="M1159.64,504.368c0,53.638 -37.637,118.829 -84.087,145.629c-22.888,13.209 -43.659,14.68 -58.834,6.284l-1.241,-0.679c-2.329,-1.43 -4.475,-3.121 -6.509,-4.967c-10.991,-10.05 -17.504,-26.875 -17.504,-49.192c0,-53.6 37.642,-118.833 84.088,-145.629c19.308,-11.146 37.112,-13.892 51.3,-9.412c2.412,0.716 4.671,1.654 6.85,2.825l0.379,0.187l2.375,1.392c14.375,9.108 23.183,27.591 23.183,53.562" style="fill:#00dfbf;fill-rule:nonzero;"/><path d="M1120.83,441.809l-0.038,-0.037l-2.558,-1.467c-15.058,-7.904 -35.5,-6.325 -58.004,6.662c-46.446,26.838 -84.088,92.025 -84.088,145.663c0,9.904 1.28,18.746 3.688,26.387c3.237,10.205 8.396,18.259 15.092,23.98c1.662,1.391 3.391,2.633 5.191,3.725l0.121,0.075c0.113,0.075 0.188,0.116 0.3,0.15l0.371,0.225l1.396,0.791l13.175,7.642c-2.334,-1.433 -4.475,-3.121 -6.513,-4.967c-10.987,-10.05 -17.504,-26.879 -17.504,-49.196c0,-53.6 37.642,-118.833 84.092,-145.629c19.308,-11.146 37.108,-13.891 51.296,-9.408c2.412,0.712 4.67,1.654 6.854,2.821l-12.871,-7.417Z" style="fill:#375a64;fill-rule:nonzero;"/><path d="M994.924,642.995c1.621,1.392 3.387,2.634 5.192,3.725l-29.805,-17.2c-0.079,-0.041 -0.116,-0.075 -0.15,-0.116l-0.341,-0.184c-14.979,-8.883 -24.238,-27.629 -24.238,-54.204c0,-53.596 37.638,-118.829 84.088,-145.629c13.475,-7.792 26.233,-11.479 37.529,-11.479c8.167,0 15.575,1.921 21.937,5.608l29.1,16.788c-15.062,-7.9 -35.5,-6.325 -58.004,6.662c-46.45,26.838 -84.087,92.029 -84.087,145.667c0,9.9 1.279,18.742 3.687,26.383c3.163,10.204 8.354,18.296 15.092,23.979" style="fill:#1a2e35;fill-rule:nonzero;"/><path d="M1251.37,557.327c0,53.637 -37.638,118.829 -84.088,145.629c-13.475,7.791 -26.233,11.516 -37.525,11.516c-8.096,0 -15.437,-1.916 -21.796,-5.529l-0.108,-0.075l-0.037,0l-91.092,-52.583l-1.242,-0.683c-2.333,-1.43 -4.479,-3.121 -6.512,-4.963c-10.988,-10.054 -17.504,-26.879 -17.504,-49.196c0,-53.6 37.641,-118.833 84.091,-145.629c19.304,-11.146 37.109,-13.892 51.296,-9.412c2.413,0.716 4.671,1.654 6.854,2.825l0.379,0.187l2.371,1.392l90.184,52.016l0,0.042c15.279,8.729 24.729,27.588 24.729,54.463" style="fill:#1a2e35;fill-rule:nonzero;"/><path d="M1201.87,841.36c-17.991,7.558 -43.325,6.625 -59.546,-2.713l-57.133,-32.971c-17.992,-10.425 -32.6,-35.683 -32.6,-56.462l0,-154.246c0,-3.879 0.525,-7.946 1.463,-12.046c0.308,-1.358 0.683,-2.712 1.095,-4.062c0.038,-0.155 0.08,-0.267 0.113,-0.38c0.375,-1.241 0.792,-2.487 1.283,-3.725c0.563,-1.62 1.238,-3.2 1.959,-4.783c0.487,-1.092 1.012,-2.179 1.537,-3.237c0.567,-1.092 1.133,-2.142 1.733,-3.196c0.113,-0.267 0.263,-0.492 0.38,-0.717l122.329,70.65c-5.913,10.2 -9.563,21.717 -9.563,32.104l0,154.25c0,18.554 11.629,27.254 26.95,21.534" style="fill:#1a2e35;fill-rule:nonzero;"/><path d="M1511.27,471.393l0,154.212c0,20.817 -14.559,46.071 -32.588,56.459l-271.162,156.583c-0.229,0.15 -0.488,0.263 -0.713,0.375c-0.525,0.342 -1.096,0.604 -1.658,0.863c-0.596,0.304 -1.204,0.604 -1.842,0.87c-0.491,0.221 -0.941,0.409 -1.433,0.605c-15.321,5.72 -26.95,-2.98 -26.95,-21.534l0,-154.25c0,-10.387 3.65,-21.904 9.562,-32.104c5.867,-10.237 14.038,-19.158 23.034,-24.354c31.125,-17.992 52.129,-50.625 57.658,-86.004c0.838,-5.159 3.017,-10.954 6.142,-16.075c3.125,-5.042 7.15,-9.484 11.633,-12.084l59.133,-34.141c4.588,-2.629 8.617,-2.746 12.08,-0.975l1.162,0.679l0.038,0.037c2.825,1.842 5.237,5.009 7.225,9.034c9.904,19.95 35.5,29.471 56.916,17.125l59.175,-34.142c17.2,-9.896 31.238,-2.746 32.517,16c0.037,0.938 0.071,1.879 0.071,2.821" style="fill:#2b454e;fill-rule:nonzero;"/><path d="M1205.52,469.062l-0.033,0l-56.5,-32.638c-3.125,5.121 -5.308,10.879 -6.138,16.038c-5.533,35.379 -26.495,68.054 -57.658,86.045c-9,5.192 -17.129,14.075 -23.037,24.313l122.329,70.65c5.866,-10.233 14.037,-19.158 23.033,-24.35c31.125,-17.996 52.129,-50.629 57.658,-86.008c0.838,-5.159 3.017,-10.955 6.142,-16.071l-65.796,-37.979Z" style="fill:#2b454e;fill-rule:nonzero;"/><path d="M1478.68,414.933l-57.1,-32.971c-18.033,-10.429 -47.2,-10.429 -65.196,0l-59.129,34.1c-3.654,2.109 -7.417,3.575 -11.221,4.442l1.771,1.021l0.033,0l66.325,38.312l1.167,0.68l0.033,0.037c2.825,1.846 5.238,5.008 7.229,9.033c9.905,19.95 35.496,29.471 56.913,17.13l59.175,-34.142c17.2,-9.9 31.237,-2.746 32.521,15.996c-1.246,-20.213 -15.284,-43.7 -32.521,-53.638" style="fill:#2b454e;fill-rule:nonzero;"/><path d="M1287.84,421.523l-0.034,0l-1.775,-1.016l-53.183,-30.713l-1.008,-0.567c-3.467,-1.808 -7.492,-1.695 -12.05,0.942l-59.167,34.138c-4.479,2.6 -8.508,7.079 -11.633,12.12l56.5,32.634l0.033,0l65.796,37.979c3.125,-5.042 7.15,-9.483 11.633,-12.083l59.133,-34.142c4.588,-2.633 8.617,-2.746 12.08,-0.979l-66.325,-38.313Z" style="fill:#375a64;fill-rule:nonzero;"/><path d="M1205.52,469.062l-0.033,0" style="fill:none;fill-rule:nonzero;stroke:#00dfbf;stroke-width:4.17px;stroke-linecap:butt;"/><path d="M1294.18,506.018l44.862,-25.9c4.505,-2.596 8.15,-0.491 8.15,4.704l0,25.317c0,5.196 -3.645,11.517 -8.15,14.113l-44.862,25.9c-4.5,2.6 -8.15,0.491 -8.15,-4.705l0,-25.312c0,-5.2 3.65,-11.517 8.15,-14.117" style="fill:#e1e1e1;fill-rule:nonzero;"/><path d="M1125.23,550.706c-6.338,3.654 -5.638,9.992 1.57,14.15l19.792,11.425c7.2,4.159 18.167,4.563 24.5,0.904c6.333,-3.65 5.633,-9.987 -1.567,-14.145l-19.795,-11.425c-7.205,-4.159 -18.171,-4.563 -24.5,-0.909" style="fill:#1a2e35;fill-rule:nonzero;"/><path d="M1125.23,546.002c-6.338,3.655 -5.638,9.992 1.57,14.15l19.792,11.425c7.2,4.155 18.167,4.563 24.5,0.905c6.333,-3.65 5.633,-9.988 -1.567,-14.146l-19.795,-11.429c-7.205,-4.155 -18.171,-4.563 -24.5,-0.905" style="fill:#375a64;fill-rule:nonzero;"/><path d="M1394.22,450.265l-5.883,-1.521l-13.484,-7.784c-5.425,-3.133 -13.704,-3.441 -18.475,-0.683c-0.083,0.05 -0.133,0.108 -0.212,0.154l-3.046,-0.783l0,5.408c0.037,2.054 1.537,4.213 4.442,5.892l14.925,8.617c5.433,3.133 13.704,3.441 18.479,0.683c2.162,-1.246 3.208,-2.913 3.233,-4.65c0,-0.117 0.021,-0.342 0.021,-0.342l0,-4.991Z" style="fill:#1a2e35;fill-rule:nonzero;"/><path d="M1356.38,435.071c-4.775,2.754 -4.246,7.534 1.179,10.667l14.93,8.621c5.433,3.133 13.704,3.437 18.479,0.683c4.775,-2.758 4.246,-7.537 -1.188,-10.671l-14.925,-8.612c-5.425,-3.138 -13.7,-3.446 -18.475,-0.688" style="fill:#375a64;fill-rule:nonzero;"/><path d="M1446.54,405.605c-14.967,-8.525 -39.012,-8.525 -53.979,0l-11.458,0l0,15.796c0,5.679 3.758,11.363 11.258,15.696c15.021,8.671 39.358,8.671 54.375,0c7.512,-4.333 11.258,-10.017 11.258,-15.696l0,-15.796l-11.454,0Z" style="fill:#1a2e35;fill-rule:nonzero;"/><path d="M1392.36,389.911c-15.017,8.671 -15.017,22.721 0,31.388c15.013,8.671 39.354,8.671 54.371,0c15.012,-8.667 15.012,-22.717 0,-31.388c-15.017,-8.671 -39.358,-8.671 -54.371,0" style="fill:#375a64;fill-rule:nonzero;"/><path d="M1335.18,424.917c-4.15,-2.246 -10.591,-2.246 -14.741,0l-3.438,0l0,4.516c-0.012,1.604 1.046,3.213 3.163,4.438c4.221,2.437 11.075,2.437 15.287,0c2.113,-1.221 3.171,-2.817 3.171,-4.417l0,-4.537l-3.442,0Z" style="fill:#1a2e35;fill-rule:nonzero;"/><path d="M1369.19,411.786l0,-4.525l-3.437,0c-4.15,-2.246 -10.588,-2.246 -14.742,0l-3.433,0l0,4.534c-0.009,1.6 1.041,3.204 3.158,4.42c4.225,2.438 11.071,2.438 15.292,0c2.116,-1.22 3.17,-2.825 3.162,-4.429" style="fill:#1a2e35;fill-rule:nonzero;"/><path d="M1320.16,420.5c-4.225,2.442 -4.225,6.392 0,8.829c4.221,2.438 11.071,2.438 15.287,0c4.225,-2.437 4.225,-6.387 0,-8.829c-4.216,-2.433 -11.066,-2.433 -15.287,0" style="fill:#375a64;fill-rule:nonzero;"/><path d="M1350.74,402.849c-4.221,2.437 -4.221,6.387 0,8.829c4.225,2.433 11.067,2.433 15.288,0c4.225,-2.442 4.225,-6.392 0,-8.829c-4.221,-2.438 -11.063,-2.438 -15.288,0" style="fill:#375a64;fill-rule:nonzero;"/><path d="M1470.23,587.4c2.991,-5.725 4.621,-11.72 4.621,-17.054c0,-5.429 -1.655,-9.696 -4.705,-12.254l12.425,-21.492c5.625,4.13 8.696,11.875 8.696,22.071c0,10.938 -3.546,23.338 -10.004,35.1l-11.033,-6.371Z" style="fill:#1a2e35;fill-rule:nonzero;"/><path d="M1437.88,628.221c-2.662,0 -5.121,-0.488 -7.35,-1.45l12.421,-21.484c1.204,0.434 2.517,0.646 3.896,0.646c2.858,0 5.887,-0.912 9.021,-2.716c4.662,-2.721 9.037,-7.138 12.479,-12.559l11.025,6.375c-6.958,11.496 -15.917,20.767 -25.383,26.217c-5.609,3.25 -11.184,4.971 -16.109,4.971" style="fill:#1a2e35;fill-rule:nonzero;"/><path d="M1427.28,624.895c-5.629,-4.155 -8.695,-11.896 -8.695,-22.067c0,-10.963 3.558,-23.358 10.033,-35.096l11.025,6.367c-3.008,5.7 -4.65,11.696 -4.65,17.058c0,5.429 1.654,9.696 4.7,12.254l-12.413,21.484Z" style="fill:#1a2e35;fill-rule:nonzero;"/><path d="M1471.26,571.33c0,5.212 -1.841,10.971 -4.775,16.083c-2.962,5.113 -7.054,9.571 -11.55,12.196c-4.495,2.592 -8.587,2.863 -11.541,1.158c-2.971,-1.704 -4.809,-5.383 -4.809,-10.595c0,-5.213 1.838,-10.967 4.809,-16.08c2.925,-5.112 7.012,-9.608 11.541,-12.2c4.496,-2.587 8.555,-2.862 11.521,-1.154c2.963,1.704 4.804,5.379 4.804,10.592" style="fill:#1a2e35;fill-rule:nonzero;"/><path d="M1430.5,564.467c6.913,-11.466 15.875,-20.737 25.379,-26.216c5.634,-3.259 11.209,-4.984 16.125,-4.984c2.654,0 5.104,0.488 7.309,1.45l-12.43,21.5c-1.204,-0.429 -2.504,-0.65 -3.879,-0.65c-2.837,0 -5.866,0.917 -9,2.721c-4.666,2.663 -9.046,7.079 -12.479,12.55l-11.025,-6.371Z" style="fill:#1a2e35;fill-rule:nonzero;"/><path d="M1419.96,659.692l8.771,-5.062c1.8,-1.038 3.263,-0.2 3.263,1.879l0,10.129c0,2.079 -1.463,4.604 -3.263,5.646l-8.771,5.063c-1.8,1.041 -3.258,0.2 -3.258,-1.884l0,-10.125c0,-2.079 1.458,-4.604 3.258,-5.646" style="fill:#1a2e35;fill-rule:nonzero;"/><path d="M1481.11,624.384l8.771,-5.063c1.8,-1.037 3.259,-0.196 3.259,1.879l0,10.13c0,2.079 -1.459,4.608 -3.259,5.645l-8.771,5.063c-1.804,1.042 -3.258,0.196 -3.258,-1.879l0,-10.129c0,-2.08 1.454,-4.605 3.258,-5.646" style="fill:#1a2e35;fill-rule:nonzero;"/><path d="M1419.96,518.504l8.771,-5.067c1.8,-1.037 3.263,-0.195 3.263,1.884l0,10.129c0,2.079 -1.463,4.604 -3.263,5.642l-8.771,5.062c-1.8,1.046 -3.258,0.2 -3.258,-1.879l0,-10.125c0,-2.079 1.458,-4.608 3.258,-5.646" style="fill:#1a2e35;fill-rule:nonzero;"/><path d="M1481.11,483.193l8.771,-5.062c1.8,-1.042 3.259,-0.196 3.259,1.879l0,10.129c0,2.079 -1.459,4.604 -3.259,5.646l-8.771,5.062c-1.804,1.038 -3.258,0.196 -3.258,-1.879l0,-10.129c0,-2.079 1.454,-4.608 3.258,-5.646" style="fill:#1a2e35;fill-rule:nonzero;"/><path d="M1388.97,550.962l0,136.309c0,6.237 -4.375,13.821 -9.779,16.937l-163.917,94.638c-5.4,3.116 -9.775,0.596 -9.775,-5.646l0,-136.308c0,-6.234 4.375,-13.821 9.775,-16.942l163.912,-94.633c5.409,-3.117 9.784,-0.588 9.784,5.645" style="fill:#f0f0f0;fill-rule:nonzero;"/><path d="M1224.36,687.25c14.275,-8.246 25.854,-28.288 25.854,-44.775c0,-9.092 -3.537,-15.175 -9.087,-17.446l-25.855,14.921c-5.404,3.121 -9.775,10.708 -9.775,16.942l0,31.762c4.713,3.104 11.413,2.9 18.863,-1.404" style="fill:#00dfbf;fill-rule:nonzero;"/><g opacity="0.7"><path d="M1224.36,687.25c14.275,-8.246 25.854,-28.288 25.854,-44.775c0,-9.092 -3.537,-15.175 -9.087,-17.446l-25.855,14.921c-5.404,3.121 -9.775,10.708 -9.775,16.942l0,31.762c4.713,3.104 11.413,2.9 18.863,-1.404" style="fill:#fff;fill-rule:nonzero;"/></g><path d="M1362.77,607.583c-2.425,-3.383 -5.825,-3.071 -7.6,0.687l-42.655,90.296l-37.562,-22.6c-3.563,-2.15 -8.175,-0.987 -10.3,2.584l-59.158,99.462l0,15.188c0,6.241 4.375,8.762 9.779,5.645l163.912,-94.637c5.4,-3.113 9.767,-10.683 9.779,-16.917l0,-43.129l-26.195,-36.579Z" style="fill:#00dfbf;fill-rule:nonzero;"/><path d="M1236.06,645.61l-15.279,8.816l0,17.659" style="fill:none;fill-rule:nonzero;stroke:#fff;stroke-width:4.17px;stroke-linejoin:round;"/><path d="M1220.78,760.356l0.004,17.658l15.275,-8.821" style="fill:none;fill-rule:nonzero;stroke:#fff;stroke-width:4.17px;stroke-linejoin:round;"/><path d="M1358.39,574.984l15.288,-8.829l0,17.654" style="fill:none;fill-rule:nonzero;stroke:#fff;stroke-width:4.17px;stroke-linejoin:round;"/><path d="M1373.67,672.085l0,17.654l-15.287,8.825" style="fill:none;fill-rule:nonzero;stroke:#fff;stroke-width:4.17px;stroke-linejoin:round;"/><path d="M1473.08,589.083c2.988,-5.725 4.617,-11.721 4.617,-17.054c0,-5.429 -1.65,-9.696 -4.7,-12.259l12.421,-21.487c5.629,4.129 8.696,11.875 8.696,22.071c0,10.937 -3.546,23.337 -10.005,35.1l-11.029,-6.371Z" style="fill:#375a64;fill-rule:nonzero;"/><path d="M1440.74,629.903c-2.663,0 -5.129,-0.487 -7.35,-1.45l12.416,-21.483c1.209,0.429 2.517,0.646 3.896,0.646c2.863,0 5.888,-0.913 9.025,-2.717c4.663,-2.721 9.034,-7.137 12.475,-12.558l11.029,6.371c-6.962,11.5 -15.925,20.77 -25.383,26.22c-5.612,3.25 -11.183,4.971 -16.108,4.971" style="fill:#375a64;fill-rule:nonzero;"/><path d="M1430.13,626.577c-5.629,-4.154 -8.7,-11.9 -8.7,-22.067c0,-10.962 3.554,-23.358 10.033,-35.1l11.025,6.371c-3.008,5.7 -4.65,11.696 -4.65,17.059c0,5.425 1.65,9.695 4.704,12.254l-12.412,21.483Z" style="fill:#375a64;fill-rule:nonzero;"/><path d="M1474.1,573.012c0,5.213 -1.834,10.971 -4.771,16.084c-2.959,5.108 -7.05,9.571 -11.546,12.196c-4.5,2.587 -8.588,2.862 -11.55,1.158c-2.963,-1.704 -4.804,-5.383 -4.804,-10.6c0,-5.208 1.841,-10.967 4.804,-16.079c2.929,-5.109 7.012,-9.609 11.55,-12.196c4.496,-2.592 8.55,-2.867 11.517,-1.158c2.966,1.7 4.8,5.383 4.8,10.595" style="fill:#375a64;fill-rule:nonzero;"/><path d="M1433.35,566.15c6.913,-11.467 15.875,-20.738 25.379,-26.217c5.63,-3.258 11.205,-4.983 16.121,-4.983c2.654,0 5.104,0.487 7.309,1.45l-12.425,21.5c-1.209,-0.429 -2.505,-0.65 -3.884,-0.65c-2.841,0 -5.866,0.912 -9,2.717c-4.662,2.662 -9.046,7.083 -12.479,12.554l-11.021,-6.371Z" style="fill:#375a64;fill-rule:nonzero;"/><path d="M1422.81,661.375l8.767,-5.063c1.796,-1.041 3.263,-0.2 3.263,1.88l0,10.129c0,2.079 -1.467,4.604 -3.263,5.646l-8.767,5.062c-1.804,1.038 -3.258,0.196 -3.258,-1.883l0,-10.125c0,-2.084 1.454,-4.604 3.258,-5.646" style="fill:#375a64;fill-rule:nonzero;"/><path d="M1483.97,626.064l8.767,-5.062c1.8,-1.042 3.262,-0.2 3.262,1.883l0,10.125c0,2.079 -1.462,4.604 -3.262,5.646l-8.767,5.062c-1.804,1.042 -3.263,0.2 -3.263,-1.879l0,-10.129c0,-2.079 1.459,-4.604 3.263,-5.646" style="fill:#375a64;fill-rule:nonzero;"/><path d="M1422.81,520.185l8.767,-5.067c1.796,-1.038 3.263,-0.196 3.263,1.883l0,10.129c0,2.08 -1.467,4.605 -3.263,5.646l-8.767,5.059c-1.804,1.041 -3.258,0.2 -3.258,-1.88l0,-10.125c0,-2.083 1.454,-4.604 3.258,-5.645" style="fill:#375a64;fill-rule:nonzero;"/><path d="M1483.97,484.874l8.767,-5.063c1.8,-1.037 3.262,-0.2 3.262,1.879l0,10.13c0,2.079 -1.462,4.604 -3.262,5.641l-8.767,5.067c-1.804,1.042 -3.263,0.2 -3.263,-1.879l0,-10.129c0,-2.08 1.459,-4.605 3.263,-5.646" style="fill:#375a64;fill-rule:nonzero;"/></svg>