<?xml version="1.0" encoding="UTF-8" standalone="no"?><!DOCTYPE svg PUBLIC "-//W3C//DTD SVG 1.1//EN" "http://www.w3.org/Graphics/SVG/1.1/DTD/svg11.dtd"><svg width="100%" height="100%" viewBox="0 0 636 861" version="1.1" xmlns="http://www.w3.org/2000/svg" xmlns:xlink="http://www.w3.org/1999/xlink" xml:space="preserve" xmlns:serif="http://www.serif.com/" style="fill-rule:evenodd;clip-rule:evenodd;stroke-linejoin:round;stroke-miterlimit:2;"><path d="M312.472,0.002l0,860.621l0.22,0c188.079,0 299.756,-357.372 299.756,-457.447c0,-214.819 -24.33,-403.176 -298.969,-403.176l-1.007,0.002Z" style="fill:#424242;"/><path d="M316.116,0.002l0,860.621l-0.22,0c-188.078,0 -299.755,-357.372 -299.755,-457.447c0,-214.819 24.329,-403.176 298.969,-403.176l1.006,0.002Z" style="fill:#616161;"/><path d="M21.228,318.626c14.12,-0.95 27.738,30.272 30.391,69.68c2.653,39.408 -6.657,72.174 -20.777,73.125c-14.12,0.95 -27.737,-30.272 -30.39,-69.68c-2.653,-39.408 6.656,-72.174 20.776,-73.125Z" style="fill:#212121;"/><path d="M613.787,318.626c-14.12,-0.95 -27.738,30.272 -30.391,69.68c-2.653,39.408 6.657,72.174 20.777,73.125c14.12,0.95 27.737,-30.272 30.39,-69.68c2.653,-39.408 -6.656,-72.174 -20.776,-73.125Z" style="fill:#212121;"/><path d="M15.81,355.52c6.824,-0.46 13.406,14.63 14.688,33.676c1.282,19.046 -3.217,34.882 -10.042,35.342c-6.824,0.459 -13.405,-14.631 -14.687,-33.677c-1.283,-19.046 3.217,-34.882 10.041,-35.341Z" style="fill:#64dd17;"/><path d="M619.205,355.52c-6.824,-0.46 -13.406,14.63 -14.688,33.676c-1.282,19.046 3.217,34.882 10.041,35.342c6.825,0.459 13.406,-14.631 14.688,-33.677c1.282,-19.046 -3.217,-34.882 -10.041,-35.341Z" style="fill:#64dd17;"/><circle cx="198.598" cy="217.195" r="47.175" style="fill:#212121;"/><circle cx="433.634" cy="217.195" r="47.175" style="fill:#212121;"/><circle cx="198.598" cy="217.195" r="26.347" style="fill:#64dd17;"/><circle cx="433.634" cy="217.195" r="26.347" style="fill:#64dd17;"/><circle cx="177.49" cy="196.747" r="16.012" style="fill:#fff;"/><circle cx="414.139" cy="198.998" r="16.012" style="fill:#fff;"/><circle cx="224.945" cy="241.607" r="7.547" style="fill:#fff;"/><circle cx="461.594" cy="243.858" r="7.547" style="fill:#fff;"/><circle cx="80.871" cy="423.707" r="6.604" style="fill:#64dd17;"/><circle cx="553.092" cy="423.707" r="6.604" style="fill:#64dd17;"/><circle cx="104.744" cy="416.64" r="6.604" style="fill:#64dd17;"/><circle cx="529.22" cy="416.64" r="6.604" style="fill:#64dd17;"/><circle cx="128.773" cy="410.498" r="6.604" style="fill:#64dd17;"/><circle cx="505.19" cy="410.498" r="6.604" style="fill:#64dd17;"/><path d="M333.961,417.465c0,-9.848 -7.996,-17.844 -17.845,-17.844c-9.849,0 -17.845,7.996 -17.845,17.844l0,267.343c0,9.848 7.996,17.844 17.845,17.844c9.849,0 17.845,-7.996 17.845,-17.844l0,-267.343Z" style="fill:#64dd17;"/></svg>